<svg xmlns="http://www.w3.org/2000/svg" viewBox="0 0 31 31"><path d="M1 1h7v7h-7zM10 1h1v2h-1zM14 1h3v1h1v1h-1v2h1v-1h1v-1h2v1h-1v1h1v-1h1v5h-1v-3h-2v1h-1v-1h-2v-1h-1v-1h1v-1h-1v1h-1v2h-1v-3h-1v-1h2zM20 1h2v2h-1v-1h-1zM23 1h7v7h-7zM2 2v5h5v-5zM24 2v5h5v-5zM3 3h3v3h-3zM9 3h1v3h1v-2h1v2h1v1h-1v1h-1v-1h-1v1h1v1h-2zM25 3h3v3h-3zM13 7h1v1h-1zM15 7h1v2h-1zM17 7h1v2h1v1h3v1h1v-2h5v1h2v1h-1v1h1v1h-1v1h-3v-1h2v-1h-1v-1h-1v2h-1v1h-1v-1h-1v1h-1v1h1v1h-1v1h-3v-1h2v-1h-1v-1h1v-3h-1v2h-1v-2h-1v-1h-1zM19 7h1v2h-1zM12 8h1v1h-1zM1 9h1v2h-1zM3 9h5v1h-1v1h-1v1h-1v1h1v2h-1v-1h-2v-1h-1v-2h1v1h1v-1h1v-1h-1v1h-1zM11 9h1v2h1v-2h1v1h3v1h1v1h-1v2h1v1h-2v-1h-1v-1h1v-1h-1v1h-3v2h-2v-1h1zM9 10h1v3h-2v-1h1zM24 10v2h1v-2zM7 11h1v1h-1zM7 13h1v1h-1zM18 13h1v1h-1zM1 14h2v2h-1v1h4v-1h1v1h1v1h-2v1h-2v1h2v1h-1v1h-1v-1h-1v-2h-1v3h-1zM8 14h1v1h1v2h1v-1h3v2h3v1h1v1h-1v2h1v-1h1v1h1v1h-4v-1h-1v-1h1v-1h-1v1h-2v1h-1v-1h-1v-2h2v1h1v-1h-1v-2h-1v1h-3v-1h-1v-1h-1v-1h1zM23 14h1v1h-1zM25 14h1v1h1v1h-1v1h-1v-1h-1v-1h1zM29 14h1v1h-1zM4 15h1v1h-1zM28 15h1v1h-1zM15 16h1v1h-1zM17 16h1v1h1v1h3v1h1v2h2v-1h-1v-1h1v-1h1v4h1v-1h2v1h-1v1h1v2h-1v-1h-1v-1h-1v2h2v1h-3v1h-1v-1h-1v1h-1v-1h-1v-2h-1v-1h1v-1h-1v-2h1v-1h-3v-1h-1zM23 16h1v1h-1zM29 16h1v1h-1zM22 17h1v1h-1zM24 17h1v1h-1zM26 17h2v2h-1v-1h-1zM23 18h1v1h-1zM29 18h1v1h-1zM7 19h3v1h-3zM28 19h1v1h-1zM6 21h2v1h-2zM9 21h1v1h1v1h-2zM22 22v3h3v-3zM29 22h1v1h-1zM1 23h7v7h-7zM12 23h2v3h-1v-2h-1zM23 23h1v1h-1zM2 24v5h5v-5zM9 24h2v1h-1v3h-1zM15 24h1v1h-1zM17 24h1v2h-1zM19 24h1v3h-1v1h4v2h-1v-1h-4v-1h-1v2h-1v-1h-1v-2h-1v-1h3v1h1v-1h1zM3 25h3v3h-3zM29 25h1v1h-1zM11 27h1v1h-1zM13 27h1v3h-2v-2h1zM23 27h1v1h-1zM25 27h1v1h-1zM28 27h1v2h-1zM9 29h1v1h-1zM24 29h1v1h-1zM27 29h1v1h-1z"/></svg>